<?xml version="1.0" encoding="UTF-8" standalone="no"?>
<!-- Created with Inkscape (http://www.inkscape.org/) -->

<svg
   xmlns:dc="http://purl.org/dc/elements/1.1/"
   xmlns:cc="http://creativecommons.org/ns#"
   xmlns:rdf="http://www.w3.org/1999/02/22-rdf-syntax-ns#"
   xmlns:svg="http://www.w3.org/2000/svg"
   xmlns="http://www.w3.org/2000/svg"
   xmlns:sodipodi="http://sodipodi.sourceforge.net/DTD/sodipodi-0.dtd"
   xmlns:inkscape="http://www.inkscape.org/namespaces/inkscape"
   width="244.29698"
   height="28.867424"
   id="svg2"
   version="1.1"
   inkscape:version="0.48.4 r9939"
   sodipodi:docname="logo3.svg">
  <defs
     id="defs4">
    <linearGradient
       id="linearGradient3901">
      <stop
         style="stop-color:#52ff52;stop-opacity:1;"
         offset="0"
         id="stop3903" />
      <stop
         style="stop-color:#94ff94;stop-opacity:0;"
         offset="1"
         id="stop3905" />
    </linearGradient>
  </defs>
  <sodipodi:namedview
     id="base"
     pagecolor="#ffffff"
     bordercolor="#666666"
     borderopacity="1.0"
     inkscape:pageopacity="0.0"
     inkscape:pageshadow="2"
     inkscape:zoom="3.959798"
     inkscape:cx="120.3926"
     inkscape:cy="8.1356405"
     inkscape:document-units="px"
     inkscape:current-layer="layer1"
     showgrid="false"
     inkscape:snap-nodes="false"
     fit-margin-top="0"
     fit-margin-left="0"
     fit-margin-right="0"
     fit-margin-bottom="0"
     inkscape:window-width="1615"
     inkscape:window-height="1026"
     inkscape:window-x="65"
     inkscape:window-y="24"
     inkscape:window-maximized="1"
     showguides="true"
     inkscape:guide-bbox="true"
     inkscape:object-paths="true"
     inkscape:snap-intersection-paths="true"
     inkscape:object-nodes="true"
     inkscape:snap-smooth-nodes="true"
     inkscape:snap-object-midpoints="true" />
  <metadata
     id="metadata7">
    <rdf:RDF>
      <cc:Work
         rdf:about="">
        <dc:format>image/svg+xml</dc:format>
        <dc:type
           rdf:resource="http://purl.org/dc/dcmitype/StillImage" />
        <dc:title />
      </cc:Work>
    </rdf:RDF>
  </metadata>
  <g
     inkscape:label="Layer 1"
     inkscape:groupmode="layer"
     id="layer1"
     transform="translate(289.71941,346.26067)">
    <flowRoot
       xml:space="preserve"
       id="flowRoot3937"
       style="font-size:40px;font-style:normal;font-weight:normal;line-height:125%;letter-spacing:0px;word-spacing:0px;fill:#000000;fill-opacity:1;stroke:none;font-family:Sans"><flowRegion
         id="flowRegion3939"><rect
           id="rect3941"
           width="990"
           height="497.14285"
           x="-101.42857"
           y="-681.92352" /></flowRegion><flowPara
         id="flowPara3943" /></flowRoot>    <path
       style="fill:#ffffff;fill-opacity:0;stroke:#000000;stroke-width:1.26173782;stroke-linecap:butt;stroke-linejoin:miter;stroke-miterlimit:4;stroke-opacity:1;stroke-dasharray:none"
       d="m -260.29872,-326.01907 c 0.42557,-1.13794 -1.89395,-2.07792 -2.33793,-0.27621 l -6.19167,-2.3156 -7.45453,-11.84793 c -1.20145,-1.90934 -5.23046,-1.83787 -6.0818,0.43851 l -2.6486,7.08207 -1.26706,3.38798 -2.6486,7.08207 c -0.85133,2.27635 2.14202,4.97412 4.30153,4.32174 l 13.39967,-4.04873 6.19167,2.31561 c -0.84725,1.65089 1.51985,2.46366 1.94543,1.32571 l 1.32313,-3.53791 0.14563,-0.3894 1.32313,-3.53791 z"
       id="path3006"
       inkscape:connector-curvature="0" />
    <path
       style="fill:#00ff00;fill-opacity:1;stroke:#000000;stroke-width:0.32879624;stroke-miterlimit:4;stroke-opacity:1;stroke-dasharray:none"
       d="m -268.40666,-325.20092 c -0.15034,-0.98051 -1.48805,-2.46984 -2.01405,-3.13471 -2.1075,-3.26958 -4.76861,-7.29224 -6.95175,-10.63971 -0.73695,-1.0442 -2.9527,-1.87684 -3.36263,-0.78071 l -2.91101,7.78372 -0.94278,2.52087 -2.9895,7.99361 c -0.40994,1.09614 1.83207,1.967 3.07336,1.66266 l 12.29423,-3.75398 c 0.18525,0.0387 0.47731,-0.0874 0.66522,-0.0656 0.57972,0.0213 1.24933,0.32933 1.89147,0.58989 0.56622,0.22976 6.6848,2.55502 7.11217,2.69297 0.73659,0.23777 -2.13924,-1.80774 -4.20564,-3.34512 -0.40997,-0.97143 -1.47629,-1.30072 -1.65909,-1.52389 z"
       id="path3010"
       inkscape:connector-curvature="0"
       sodipodi:nodetypes="cccsccscccsscc" />
    <path
       transform="matrix(-0.31569315,0.84412871,-0.84412871,-0.31569315,-236.20078,-331.68544)"
       d="m 18.749999,36.694386 c 0,0.8876 -0.719542,1.607142 -1.607142,1.607142 -0.887601,0 -1.607143,-0.719542 -1.607143,-1.607142 0,-0.887601 0.719542,-1.607143 1.607143,-1.607143 0.8876,0 1.607142,0.719542 1.607142,1.607143 z"
       sodipodi:ry="1.6071428"
       sodipodi:rx="1.6071428"
       sodipodi:cy="36.694386"
       sodipodi:cx="17.142857"
       id="path3061"
       style="opacity:0.81242807;fill:#00ff00;fill-opacity:1;stroke:none"
       sodipodi:type="arc" />
    <path
       transform="matrix(-0.17031906,0.45541439,-0.45541439,-0.17031906,-237.44681,-321.5333)"
       d="m 18.749999,36.694386 c 0,0.8876 -0.719542,1.607142 -1.607142,1.607142 -0.887601,0 -1.607143,-0.719542 -1.607143,-1.607142 0,-0.887601 0.719542,-1.607143 1.607143,-1.607143 0.8876,0 1.607142,0.719542 1.607142,1.607143 z"
       sodipodi:ry="1.6071428"
       sodipodi:rx="1.6071428"
       sodipodi:cy="36.694386"
       sodipodi:cx="17.142857"
       id="path3009"
       style="fill:#00ff00;fill-opacity:1;stroke:none"
       sodipodi:type="arc" />
    <path
       style="fill:#00ff00;fill-opacity:1;stroke:none;stroke-width:0.27134915999999998;stroke-miterlimit:4;stroke-opacity:1"
       d="m -46.23106,-319.10656 0,1.07615 -216.96729,0 c 1.28871,-0.0761 3.23671,-0.14473 5.76704,-0.20667 1.73144,-0.19477 3.35687,-0.2728 4.53197,-0.0935 2.23528,-0.19007 4.13625,-0.22485 5.62762,-0.0852 2.76452,-0.1074 5.69362,-0.18417 8.39005,-0.0931 44.9426,-0.42375 137.34725,-0.30362 192.65061,-0.59762 z"
       id="rect3801"
       inkscape:connector-curvature="0"
       sodipodi:nodetypes="cccccccc" />
    <path
       sodipodi:type="arc"
       style="fill:#00ff00;fill-opacity:1;stroke:none"
       id="path3804"
       sodipodi:cx="17.142857"
       sodipodi:cy="36.694386"
       sodipodi:rx="1.6071428"
       sodipodi:ry="1.6071428"
       d="m 18.749999,36.694386 c 0,0.8876 -0.719542,1.607142 -1.607142,1.607142 -0.887601,0 -1.607143,-0.719542 -1.607143,-1.607142 0,-0.887601 0.719542,-1.607143 1.607143,-1.607143 0.8876,0 1.607142,0.719542 1.607142,1.607143 z"
       transform="matrix(-0.17031906,0.45541439,-0.45541439,-0.17031906,-218.69681,-326.89044)" />
    <path
       sodipodi:type="arc"
       style="fill:#00ff00;fill-opacity:1;stroke:none"
       id="path3808"
       sodipodi:cx="17.142857"
       sodipodi:cy="36.694386"
       sodipodi:rx="1.6071428"
       sodipodi:ry="1.6071428"
       d="m 18.749999,36.694386 c 0,0.8876 -0.719542,1.607142 -1.607142,1.607142 -0.887601,0 -1.607143,-0.719542 -1.607143,-1.607142 0,-0.887601 0.719542,-1.607143 1.607143,-1.607143 0.8876,0 1.607142,0.719542 1.607142,1.607143 z"
       transform="matrix(-0.17031906,0.45541439,-0.45541439,-0.17031906,-212.17895,-328.4083)" />
    <path
       transform="matrix(-0.17031906,0.45541439,-0.45541439,-0.17031906,-205.92895,-323.31901)"
       d="m 18.749999,36.694386 c 0,0.8876 -0.719542,1.607142 -1.607142,1.607142 -0.887601,0 -1.607143,-0.719542 -1.607143,-1.607142 0,-0.887601 0.719542,-1.607143 1.607143,-1.607143 0.8876,0 1.607142,0.719542 1.607142,1.607143 z"
       sodipodi:ry="1.6071428"
       sodipodi:rx="1.6071428"
       sodipodi:cy="36.694386"
       sodipodi:cx="17.142857"
       id="path3810"
       style="fill:#00ff00;fill-opacity:1;stroke:none"
       sodipodi:type="arc" />
    <path
       transform="matrix(-0.4087363,1.0929158,-1.0929158,-0.4087363,-169.76298,-324.97473)"
       d="m 18.749999,36.694386 c 0,0.8876 -0.719542,1.607142 -1.607142,1.607142 -0.887601,0 -1.607143,-0.719542 -1.607143,-1.607142 0,-0.887601 0.719542,-1.607143 1.607143,-1.607143 0.8876,0 1.607142,0.719542 1.607142,1.607143 z"
       sodipodi:ry="1.6071428"
       sodipodi:rx="1.6071428"
       sodipodi:cy="36.694386"
       sodipodi:cx="17.142857"
       id="path3818"
       style="fill:#00ff00;fill-opacity:1;stroke:none"
       sodipodi:type="arc" />
    <path
       transform="matrix(-0.24365208,0.65149881,-0.65149881,-0.24365208,-177.17376,-341.66829)"
       d="m 18.749999,36.694386 a 1.6071428,1.6071428 0 1 1 -3.214285,0 1.6071428,1.6071428 0 1 1 3.214285,0 z"
       sodipodi:ry="1.6071428"
       sodipodi:rx="1.6071428"
       sodipodi:cy="36.694386"
       sodipodi:cx="17.142857"
       id="path3011"
       style="fill:#00ff00;fill-opacity:1;stroke:none"
       sodipodi:type="arc" />
    <path
       sodipodi:type="arc"
       style="fill:#00ff00;fill-opacity:1;stroke:none"
       id="path3013"
       sodipodi:cx="17.142857"
       sodipodi:cy="36.694386"
       sodipodi:rx="1.6071428"
       sodipodi:ry="1.6071428"
       d="m 18.749999,36.694386 c 0,0.8876 -0.719542,1.607142 -1.607142,1.607142 -0.887601,0 -1.607143,-0.719542 -1.607143,-1.607142 0,-0.887601 0.719542,-1.607143 1.607143,-1.607143 0.8876,0 1.607142,0.719542 1.607142,1.607143 z"
       transform="matrix(-0.4087363,1.0929158,-1.0929158,-0.4087363,-158.77757,-328.40429)" />
    <path
       sodipodi:type="arc"
       style="fill:#00ff00;fill-opacity:1;stroke:none"
       id="path3015"
       sodipodi:cx="17.142857"
       sodipodi:cy="36.694386"
       sodipodi:rx="1.6071428"
       sodipodi:ry="1.6071428"
       d="m 18.749999,36.694386 c 0,0.8876 -0.719542,1.607142 -1.607142,1.607142 -0.887601,0 -1.607143,-0.719542 -1.607143,-1.607142 0,-0.887601 0.719542,-1.607143 1.607143,-1.607143 0.8876,0 1.607142,0.719542 1.607142,1.607143 z"
       transform="matrix(-0.4087363,1.0929158,-1.0929158,-0.4087363,-177.97047,-329.03565)" />
    <path
       transform="matrix(-0.4087363,1.0929158,-1.0929158,-0.4087363,-147.28709,-333.20253)"
       d="m 18.749999,36.694386 c 0,0.8876 -0.719542,1.607142 -1.607142,1.607142 -0.887601,0 -1.607143,-0.719542 -1.607143,-1.607142 0,-0.887601 0.719542,-1.607143 1.607143,-1.607143 0.8876,0 1.607142,0.719542 1.607142,1.607143 z"
       sodipodi:ry="1.6071428"
       sodipodi:rx="1.6071428"
       sodipodi:cy="36.694386"
       sodipodi:cx="17.142857"
       id="path3017"
       style="fill:#00ff00;fill-opacity:1;stroke:none"
       sodipodi:type="arc" />
    <path
       sodipodi:type="arc"
       style="fill:#00ff00;fill-opacity:1;stroke:none"
       id="path3019"
       sodipodi:cx="17.142857"
       sodipodi:cy="36.694386"
       sodipodi:rx="1.6071428"
       sodipodi:ry="1.6071428"
       d="m 18.749999,36.694386 c 0,0.8876 -0.719542,1.607142 -1.607142,1.607142 -0.887601,0 -1.607143,-0.719542 -1.607143,-1.607142 0,-0.887601 0.719542,-1.607143 1.607143,-1.607143 0.8876,0 1.607142,0.719542 1.607142,1.607143 z"
       transform="matrix(-0.4087363,1.0929158,-1.0929158,-0.4087363,-140.97364,-325.24758)" />
    <path
       sodipodi:type="arc"
       style="fill:#00ff00;fill-opacity:1;stroke:none"
       id="path3023"
       sodipodi:cx="17.142857"
       sodipodi:cy="36.694386"
       sodipodi:rx="1.6071428"
       sodipodi:ry="1.6071428"
       d="m 18.749999,36.694386 c 0,0.8876 -0.719542,1.607142 -1.607142,1.607142 -0.887601,0 -1.607143,-0.719542 -1.607143,-1.607142 0,-0.887601 0.719542,-1.607143 1.607143,-1.607143 0.8876,0 1.607142,0.719542 1.607142,1.607143 z"
       transform="matrix(-0.4087363,1.0929158,-1.0929158,-0.4087363,-114.5834,-325.37384)" />
    <path
       transform="matrix(-0.4087363,1.0929158,-1.0929158,-0.4087363,-109.02757,-342.16763)"
       d="m 18.749999,36.694386 c 0,0.8876 -0.719542,1.607142 -1.607142,1.607142 -0.887601,0 -1.607143,-0.719542 -1.607143,-1.607142 0,-0.887601 0.719542,-1.607143 1.607143,-1.607143 0.8876,0 1.607142,0.719542 1.607142,1.607143 z"
       sodipodi:ry="1.6071428"
       sodipodi:rx="1.6071428"
       sodipodi:cy="36.694386"
       sodipodi:cx="17.142857"
       id="path3025"
       style="fill:#00ff00;fill-opacity:1;stroke:none"
       sodipodi:type="arc" />
    <path
       transform="matrix(-0.4087363,1.0929158,-1.0929158,-0.4087363,-127.71538,-323.22727)"
       d="m 18.749999,36.694386 c 0,0.8876 -0.719542,1.607142 -1.607142,1.607142 -0.887601,0 -1.607143,-0.719542 -1.607143,-1.607142 0,-0.887601 0.719542,-1.607143 1.607143,-1.607143 0.8876,0 1.607142,0.719542 1.607142,1.607143 z"
       sodipodi:ry="1.6071428"
       sodipodi:rx="1.6071428"
       sodipodi:cy="36.694386"
       sodipodi:cx="17.142857"
       id="path3027"
       style="fill:#00ff00;fill-opacity:1;stroke:none"
       sodipodi:type="arc" />
    <path
       sodipodi:type="arc"
       style="fill:#00ff00;fill-opacity:1;stroke:none"
       id="path3029"
       sodipodi:cx="17.142857"
       sodipodi:cy="36.694386"
       sodipodi:rx="1.6071428"
       sodipodi:ry="1.6071428"
       d="m 18.749999,36.694386 c 0,0.8876 -0.719542,1.607142 -1.607142,1.607142 -0.887601,0 -1.607143,-0.719542 -1.607143,-1.607142 0,-0.887601 0.719542,-1.607143 1.607143,-1.607143 0.8876,0 1.607142,0.719542 1.607142,1.607143 z"
       transform="matrix(-0.4087363,1.0929158,-1.0929158,-0.4087363,-103.34545,-329.16192)" />
    <path
       transform="matrix(-0.4087363,1.0929158,-1.0929158,-0.4087363,-94.254077,-335.22284)"
       d="m 18.749999,36.694386 c 0,0.8876 -0.719542,1.607142 -1.607142,1.607142 -0.887601,0 -1.607143,-0.719542 -1.607143,-1.607142 0,-0.887601 0.719542,-1.607143 1.607143,-1.607143 0.8876,0 1.607142,0.719542 1.607142,1.607143 z"
       sodipodi:ry="1.6071428"
       sodipodi:rx="1.6071428"
       sodipodi:cy="36.694386"
       sodipodi:cx="17.142857"
       id="path3031"
       style="fill:#00ff00;fill-opacity:1;stroke:none"
       sodipodi:type="arc" />
    <path
       sodipodi:type="arc"
       style="fill:#00ff00;fill-opacity:1;stroke:none"
       id="path3033"
       sodipodi:cx="17.142857"
       sodipodi:cy="36.694386"
       sodipodi:rx="1.6071428"
       sodipodi:ry="1.6071428"
       d="m 18.749999,36.694386 c 0,0.8876 -0.719542,1.607142 -1.607142,1.607142 -0.887601,0 -1.607143,-0.719542 -1.607143,-1.607142 0,-0.887601 0.719542,-1.607143 1.607143,-1.607143 0.8876,0 1.607142,0.719542 1.607142,1.607143 z"
       transform="matrix(-0.4087363,1.0929158,-1.0929158,-0.4087363,-82.511054,-333.96015)" />
    <path
       transform="matrix(-0.4087363,1.0929158,-1.0929158,-0.4087363,-90.339736,-324.86878)"
       d="m 18.749999,36.694386 c 0,0.8876 -0.719542,1.607142 -1.607142,1.607142 -0.887601,0 -1.607143,-0.719542 -1.607143,-1.607142 0,-0.887601 0.719542,-1.607143 1.607143,-1.607143 0.8876,0 1.607142,0.719542 1.607142,1.607143 z"
       sodipodi:ry="1.6071428"
       sodipodi:rx="1.6071428"
       sodipodi:cy="36.694386"
       sodipodi:cx="17.142857"
       id="path3035"
       style="fill:#00ff00;fill-opacity:1;stroke:none"
       sodipodi:type="arc" />
    <path
       sodipodi:type="arc"
       style="fill:#00ff00;fill-opacity:1;stroke:none"
       id="path3037"
       sodipodi:cx="17.142857"
       sodipodi:cy="36.694386"
       sodipodi:rx="1.6071428"
       sodipodi:ry="1.6071428"
       d="m 18.749999,36.694386 c 0,0.8876 -0.719542,1.607142 -1.607142,1.607142 -0.887601,0 -1.607143,-0.719542 -1.607143,-1.607142 0,-0.887601 0.719542,-1.607143 1.607143,-1.607143 0.8876,0 1.607142,0.719542 1.607142,1.607143 z"
       transform="matrix(-0.4087363,1.0929158,-1.0929158,-0.4087363,-79.480596,-343.30407)" />
    <path
       sodipodi:type="arc"
       style="fill:#00ff00;fill-opacity:1;stroke:none"
       id="path3039"
       sodipodi:cx="17.142857"
       sodipodi:cy="36.694386"
       sodipodi:rx="1.6071428"
       sodipodi:ry="1.6071428"
       d="m 18.749999,36.694386 c 0,0.8876 -0.719542,1.607142 -1.607142,1.607142 -0.887601,0 -1.607143,-0.719542 -1.607143,-1.607142 0,-0.887601 0.719542,-1.607143 1.607143,-1.607143 0.8876,0 1.607142,0.719542 1.607142,1.607143 z"
       transform="matrix(-0.4087363,1.0929158,-1.0929158,-0.4087363,-195.79471,-324.97473)" />
    <path
       transform="matrix(-0.4087363,1.0929158,-1.0929158,-0.4087363,-192.36514,-342.54644)"
       d="m 18.749999,36.694386 c 0,0.8876 -0.719542,1.607142 -1.607142,1.607142 -0.887601,0 -1.607143,-0.719542 -1.607143,-1.607142 0,-0.887601 0.719542,-1.607143 1.607143,-1.607143 0.8876,0 1.607142,0.719542 1.607142,1.607143 z"
       sodipodi:ry="1.6071428"
       sodipodi:rx="1.6071428"
       sodipodi:cy="36.694386"
       sodipodi:cx="17.142857"
       id="path3041"
       style="fill:#00ff00;fill-opacity:1;stroke:none"
       sodipodi:type="arc" />
    <path
       transform="matrix(-0.28492314,0.76185306,-0.76185306,-0.28492314,-192.30426,-344.76045)"
       d="m 18.749999,36.694386 c 0,0.8876 -0.719542,1.607142 -1.607142,1.607142 -0.887601,0 -1.607143,-0.719542 -1.607143,-1.607142 0,-0.887601 0.719542,-1.607143 1.607143,-1.607143 0.8876,0 1.607142,0.719542 1.607142,1.607143 z"
       sodipodi:ry="1.6071428"
       sodipodi:rx="1.6071428"
       sodipodi:cy="36.694386"
       sodipodi:cx="17.142857"
       id="path3813"
       style="fill:#00ff00;fill-opacity:1;stroke:none"
       sodipodi:type="arc" />
    <path
       sodipodi:type="arc"
       style="fill:#00ff00;fill-opacity:1;stroke:none"
       id="path3028"
       sodipodi:cx="17.142857"
       sodipodi:cy="36.694386"
       sodipodi:rx="1.6071428"
       sodipodi:ry="1.6071428"
       d="m 18.749999,36.694386 c 0,0.8876 -0.719542,1.607142 -1.607142,1.607142 -0.887601,0 -1.607143,-0.719542 -1.607143,-1.607142 0,-0.887601 0.719542,-1.607143 1.607143,-1.607143 0.8876,0 1.607142,0.719542 1.607142,1.607143 z"
       transform="matrix(-0.4087363,1.0929158,-1.0929158,-0.4087363,-205.11832,-346.46077)" />
    <path
       transform="matrix(-0.28492314,0.83542255,-0.76185306,-0.31243717,-222.10376,-330.11228)"
       d="m 18.749999,36.694386 c 0,0.8876 -0.719542,1.607142 -1.607142,1.607142 -0.887601,0 -1.607143,-0.719542 -1.607143,-1.607142 0,-0.887601 0.719542,-1.607143 1.607143,-1.607143 0.8876,0 1.607142,0.719542 1.607142,1.607143 z"
       sodipodi:ry="1.6071428"
       sodipodi:rx="1.6071428"
       sodipodi:cy="36.694386"
       sodipodi:cx="17.142857"
       id="path3030"
       style="fill:#00ff00;fill-opacity:1;stroke:none"
       sodipodi:type="arc" />
    <path
       sodipodi:type="arc"
       style="fill:#00ff00;fill-opacity:1;stroke:none"
       id="path3800"
       sodipodi:cx="17.142857"
       sodipodi:cy="36.694386"
       sodipodi:rx="1.6071428"
       sodipodi:ry="1.6071428"
       d="m 18.749999,36.694386 a 1.6071428,1.6071428 0 1 1 -3.214285,0 1.6071428,1.6071428 0 1 1 3.214285,0 z"
       transform="matrix(-0.4087363,1.0929158,-1.0929158,-0.4087363,-71.904464,-328.27803)" />
    <path
       transform="matrix(-0.4087363,1.0929158,-1.0929158,-0.4087363,-54.479333,-337.3694)"
       d="m 18.749999,36.694386 a 1.6071428,1.6071428 0 1 1 -3.214285,0 1.6071428,1.6071428 0 1 1 3.214285,0 z"
       sodipodi:ry="1.6071428"
       sodipodi:rx="1.6071428"
       sodipodi:cy="36.694386"
       sodipodi:cx="17.142857"
       id="path3802"
       style="fill:#00ff00;fill-opacity:1;stroke:none"
       sodipodi:type="arc" />
    <path
       sodipodi:type="arc"
       style="fill:#00ff00;fill-opacity:1;stroke:none"
       id="path3805"
       sodipodi:cx="17.142857"
       sodipodi:cy="36.694386"
       sodipodi:rx="1.6071428"
       sodipodi:ry="1.6071428"
       d="m 18.749999,36.694386 a 1.6071428,1.6071428 0 1 1 -3.214285,0 1.6071428,1.6071428 0 1 1 3.214285,0 z"
       transform="matrix(-0.24365208,0.65149881,-0.65149881,-0.24365208,-83.608399,-333.83961)" />
    <path
       transform="matrix(-0.24365208,0.65149881,-0.65149881,-0.24365208,-67.19342,-324.74824)"
       d="m 18.749999,36.694386 a 1.6071428,1.6071428 0 1 1 -3.214285,0 1.6071428,1.6071428 0 1 1 3.214285,0 z"
       sodipodi:ry="1.6071428"
       sodipodi:rx="1.6071428"
       sodipodi:cy="36.694386"
       sodipodi:cx="17.142857"
       id="path3807"
       style="fill:#00ff00;fill-opacity:1;stroke:none"
       sodipodi:type="arc" />
    <path
       sodipodi:type="arc"
       style="fill:#00ff00;fill-opacity:1;stroke:none"
       id="path3809"
       sodipodi:cx="17.142857"
       sodipodi:cy="36.694386"
       sodipodi:rx="1.6071428"
       sodipodi:ry="1.6071428"
       d="m 18.749999,36.694386 a 1.6071428,1.6071428 0 1 1 -3.214285,0 1.6071428,1.6071428 0 1 1 3.214285,0 z"
       transform="matrix(-0.24365208,0.65149881,-0.65149881,-0.24365208,-54.061437,-334.34469)" />
    <path
       transform="matrix(-0.24365208,0.65149881,-0.65149881,-0.24365208,-49.768289,-326.51601)"
       d="m 18.749999,36.694386 a 1.6071428,1.6071428 0 1 1 -3.214285,0 1.6071428,1.6071428 0 1 1 3.214285,0 z"
       sodipodi:ry="1.6071428"
       sodipodi:rx="1.6071428"
       sodipodi:cy="36.694386"
       sodipodi:cx="17.142857"
       id="path3812"
       style="fill:#00ff00;fill-opacity:1;stroke:none"
       sodipodi:type="arc" />
    <path
       sodipodi:type="arc"
       style="fill:#00ff00;fill-opacity:1;stroke:none"
       id="path3814"
       sodipodi:cx="17.142857"
       sodipodi:cy="36.694386"
       sodipodi:rx="1.6071428"
       sodipodi:ry="1.6071428"
       d="m 18.749999,36.694386 a 1.6071428,1.6071428 0 1 1 -3.214285,0 1.6071428,1.6071428 0 1 1 3.214285,0 z"
       transform="matrix(-0.24365208,0.65149881,-0.65149881,-0.24365208,-58.859662,-326.01093)" />
    <path
       transform="matrix(-0.24365208,0.65149881,-0.65149881,-0.24365208,-34.110925,-326.76854)"
       d="m 18.749999,36.694386 a 1.6071428,1.6071428 0 1 1 -3.214285,0 1.6071428,1.6071428 0 1 1 3.214285,0 z"
       sodipodi:ry="1.6071428"
       sodipodi:rx="1.6071428"
       sodipodi:cy="36.694386"
       sodipodi:cx="17.142857"
       id="path3816"
       style="fill:#00ff00;fill-opacity:1;stroke:none"
       sodipodi:type="arc" />
    <path
       sodipodi:type="arc"
       style="fill:#00ff00;fill-opacity:1;stroke:none"
       id="path3819"
       sodipodi:cx="17.142857"
       sodipodi:cy="36.694386"
       sodipodi:rx="1.6071428"
       sodipodi:ry="1.6071428"
       d="m 18.749999,36.694386 a 1.6071428,1.6071428 0 1 1 -3.214285,0 1.6071428,1.6071428 0 1 1 3.214285,0 z"
       transform="matrix(-0.4087363,1.0929158,-1.0929158,-0.4087363,-35.033897,-324.48996)" />
    <path
       transform="matrix(-0.4087363,1.0929158,-1.0929158,-0.4087363,-10.790236,-339.13717)"
       d="m 18.749999,36.694386 a 1.6071428,1.6071428 0 1 1 -3.214285,0 1.6071428,1.6071428 0 1 1 3.214285,0 z"
       sodipodi:ry="1.6071428"
       sodipodi:rx="1.6071428"
       sodipodi:cy="36.694386"
       sodipodi:cx="17.142857"
       id="path3821"
       style="fill:#00ff00;fill-opacity:1;stroke:none"
       sodipodi:type="arc" />
    <path
       sodipodi:type="arc"
       style="fill:#00ff00;fill-opacity:1;stroke:none"
       id="path3823"
       sodipodi:cx="17.142857"
       sodipodi:cy="36.694386"
       sodipodi:rx="1.6071428"
       sodipodi:ry="1.6071428"
       d="m 18.749999,36.694386 a 1.6071428,1.6071428 0 1 1 -3.214285,0 1.6071428,1.6071428 0 1 1 3.214285,0 z"
       transform="matrix(-0.4087363,1.0929158,-1.0929158,-0.4087363,-40.842274,-344.18793)" />
    <text
       xml:space="preserve"
       style="font-size:36.94926071px;font-style:normal;font-variant:normal;font-weight:normal;font-stretch:normal;line-height:125%;letter-spacing:0px;word-spacing:0px;fill:#000000;fill-opacity:1;stroke:none;font-family:'Anita  Semi-square';-inkscape-font-specification:'Anita  Semi-square'"
       x="-253.43185"
       y="-319.73947"
       id="text3000"
       sodipodi:linespacing="125%"><tspan
         sodipodi:role="line"
         id="tspan3002"
         x="-253.43185"
         y="-319.73947"
         style="font-style:normal;font-variant:normal;font-weight:normal;font-stretch:normal;font-family:'Anita  Semi-square';-inkscape-font-specification:'Anita  Semi-square'"><tspan
   id="tspan3025"
   style="font-size:36.94926071px;font-style:normal;font-variant:normal;font-weight:normal;font-stretch:normal;font-family:'Anita  Semi-square';-inkscape-font-specification:'Anita  Semi-square'">S</tspan><tspan
   style="font-size:22.84124947px;font-style:normal;font-variant:normal;font-weight:normal;font-stretch:normal;font-family:'Anita  Semi-square';-inkscape-font-specification:'Anita  Semi-square'"
   id="tspan2997">cience</tspan>E<tspan
   style="font-size:22.84124947px;font-style:normal;font-variant:normal;font-weight:normal;font-stretch:normal;font-family:'Anita  Semi-square';-inkscape-font-specification:'Anita  Semi-square'"
   id="tspan3003">vents </tspan></tspan></text>
  </g>
</svg>
