<?xml version="1.0" encoding="UTF-8" standalone="no"?>
<!-- Created with Inkscape (http://www.inkscape.org/) -->

<svg
   xmlns:dc="http://purl.org/dc/elements/1.1/"
   xmlns:cc="http://creativecommons.org/ns#"
   xmlns:rdf="http://www.w3.org/1999/02/22-rdf-syntax-ns#"
   xmlns:svg="http://www.w3.org/2000/svg"
   xmlns="http://www.w3.org/2000/svg"
   xmlns:sodipodi="http://sodipodi.sourceforge.net/DTD/sodipodi-0.dtd"
   xmlns:inkscape="http://www.inkscape.org/namespaces/inkscape"
   width="17.28125"
   height="34.96875"
   viewBox="0 0 17.28125 34.968751"
   id="svg2"
   version="1.1"
   inkscape:version="0.48.4 r9939"
   sodipodi:docname="logo_no_data.svg"
   inkscape:export-filename="C:\Users\Katarzyna\OneDrive\Dokumenty\logo_final.png"
   inkscape:export-xdpi="90"
   inkscape:export-ydpi="90">
  <defs
     id="defs4" />
  <sodipodi:namedview
     id="base"
     pagecolor="#ffffff"
     bordercolor="#666666"
     borderopacity="1.0"
     inkscape:pageopacity="0.0"
     inkscape:pageshadow="2"
     inkscape:zoom="11.2"
     inkscape:cx="14.347414"
     inkscape:cy="17.485976"
     inkscape:document-units="px"
     inkscape:current-layer="layer1"
     showgrid="false"
     showguides="true"
     inkscape:guide-bbox="true"
     inkscape:snap-intersection-paths="true"
     inkscape:object-paths="true"
     inkscape:object-nodes="true"
     inkscape:snap-smooth-nodes="true"
     inkscape:window-width="1615"
     inkscape:window-height="1026"
     inkscape:window-x="65"
     inkscape:window-y="24"
     inkscape:window-maximized="1"
     inkscape:snap-nodes="false"
     fit-margin-top="0"
     fit-margin-left="0"
     fit-margin-right="0"
     fit-margin-bottom="0" />
  <metadata
     id="metadata7">
    <rdf:RDF>
      <cc:Work
         rdf:about="">
        <dc:format>image/svg+xml</dc:format>
        <dc:type
           rdf:resource="http://purl.org/dc/dcmitype/StillImage" />
        <dc:title />
      </cc:Work>
    </rdf:RDF>
  </metadata>
  <g
     inkscape:label="Layer 1"
     inkscape:groupmode="layer"
     id="layer1"
     transform="translate(-307.5,-686.90625)">
    <rect
       style="fill:#ffffff;fill-opacity:1;stroke:#000000;stroke-width:0.03317298;stroke-miterlimit:4;stroke-opacity:1;stroke-dasharray:none"
       id="rect4194"
       width="17.178862"
       height="34.890862"
       x="307.56201"
       y="686.94604" />
    <text
       xml:space="preserve"
       style="font-size:25px;font-style:normal;font-weight:normal;line-height:125%;letter-spacing:0px;word-spacing:0px;fill:#000000;fill-opacity:1;stroke:none;font-family:sans-serif"
       x="140"
       y="329.50507"
       id="text3336"
       sodipodi:linespacing="125%"><tspan
         sodipodi:role="line"
         id="tspan3338"
         x="140"
         y="329.50507" /></text>
    <g
       id="g4196"
       transform="matrix(0.08293244,0,0,0.08293244,284.01663,665.25107)">
      <path
         inkscape:export-ydpi="90"
         inkscape:export-xdpi="90"
         sodipodi:nodetypes="ccc"
         inkscape:connector-curvature="0"
         id="path4172"
         d="m 338.03191,632.44232 c 205.9627,-38.41784 17.09184,-228.99524 73.61436,-320.88863 -166.61984,44.59369 41.03286,237.31436 -73.61436,320.88863 z"
         style="fill:#aaeeff;fill-rule:evenodd;stroke:none" />
      <path
         inkscape:export-ydpi="90"
         inkscape:export-xdpi="90"
         sodipodi:nodetypes="cccc"
         inkscape:connector-curvature="0"
         id="path4176"
         d="m 411.1157,311.85257 c -34.87559,11.87903 -69.28602,23.20516 -69.11274,77.56806 l 4.03748,29.68765 c -7.05143,-37.6957 32.12677,-82.89323 65.07526,-107.25571 z"
         style="fill:#004455;fill-rule:evenodd;stroke:none" />
      <path
         inkscape:export-ydpi="90"
         inkscape:export-xdpi="90"
         style="fill:#006680;fill-rule:evenodd;stroke:none"
         d="m 411.66843,311.46707 c -29.92019,19.51415 -70.24998,67.57316 -66.21184,101.59518 2.66585,19.91312 6.78566,31.44818 10.33686,45.16392 -4.37453,-43.21423 39.36083,-113.27594 55.87498,-146.7591 z"
         id="path4180"
         inkscape:connector-curvature="0"
         sodipodi:nodetypes="cccc" />
      <path
         inkscape:export-ydpi="90"
         inkscape:export-xdpi="90"
         sodipodi:nodetypes="cccc"
         inkscape:connector-curvature="0"
         id="path4182"
         d="m 405.86229,323.03526 c -16.14745,13.22615 -52.788,96.616 -50.73341,130.75228 2.66585,19.91312 7.61287,31.25723 11.16406,44.97298 5.73189,-13.5877 24.52866,-88.70108 39.56935,-175.72526 z"
         style="fill:#0088aa;fill-rule:evenodd;stroke:none" />
      <path
         inkscape:export-ydpi="90"
         inkscape:export-xdpi="90"
         style="fill:#00aad4;fill-rule:evenodd;stroke:none"
         d="m 402.26263,339.23358 c -15.94788,34.80351 -26.90633,110.27732 -35.97485,159.54943 5.27019,19.91312 5.6448,36.38229 7.80961,50.09803 16.79347,-28.10226 45.2693,-70.95776 29.71346,-169.81461 -2.07958,-13.21582 -1.04717,-26.69983 -1.54822,-39.83285 z"
         id="path4184"
         inkscape:connector-curvature="0"
         sodipodi:nodetypes="cccsc" />
      <path
         inkscape:export-ydpi="90"
         inkscape:export-xdpi="90"
         sodipodi:nodetypes="cccsc"
         inkscape:connector-curvature="0"
         id="path4186"
         d="m 405.32657,390.44956 c 8.29864,86.14247 -12.16108,121.68813 -31.56501,157.20305 -0.61522,22.04036 0.21367,27.85804 -5.57272,45.35115 16.79347,-28.10227 48.25035,-26.42375 50.7405,-126.46605 0.32173,-12.91571 -8.03425,-62.32169 -13.60277,-76.08815 z"
         style="fill:#2ad4ff;fill-rule:evenodd;stroke:none" />
      <path
         inkscape:export-ydpi="90"
         inkscape:export-xdpi="90"
         style="fill:#80e5ff;fill-rule:evenodd;stroke:none"
         d="m 413.82832,425.08286 c 13.93116,120.02817 -25.92066,142.01521 -43.95202,162.6254 -5.69068,20.67195 -9.35744,19.45562 -20.5182,36.657 16.79347,-28.10226 77.77152,-17.05997 80.26168,-117.10226 0.32172,-12.91571 -10.22293,-68.41368 -15.79146,-82.18014 z"
         id="path4188"
         inkscape:connector-curvature="0"
         sodipodi:nodetypes="cccsc" />
    </g>
  </g>
</svg>
